<svg class="chart chart-svg chart-boxplot-chart" role="img" xmlns="http://www.w3.org/2000/svg" viewBox="0 0 560 286" width="560" height="286" style="--chart-background:transparent;--chart-text:#1f2020;--chart-muted:#64748b;--chart-grid:#e2e8f0;--chart-axis:#94a3b8;--chart-win:#16a34a;--chart-loss:#dc2626;--chart-slice-stroke:#ffffff;--chart-font-family:Inter, &quot;Helvetica Neue&quot;, Arial, sans-serif;font-family:Inter, &quot;Helvetica Neue&quot;, Arial, sans-serif;max-width:100%" aria-label="Boxplot fixture"><title>Boxplot fixture</title><text x="280" y="22" font-size="15" font-weight="bold" text-anchor="middle" fill="#1f2020" class="chart-title">Boxplot fixture</text><line x1="48" y1="223.65517241379308" x2="544" y2="223.65517241379308" stroke="#e2e8f0" stroke-width="1" class="chart-grid"></line><text x="42" y="227.65517241379308" font-size="11" text-anchor="end" fill="#64748b" class="chart-tick">5</text><line x1="48" y1="185.7241379310345" x2="544" y2="185.7241379310345" stroke="#e2e8f0" stroke-width="1" class="chart-grid"></line><text x="42" y="189.7241379310345" font-size="11" text-anchor="end" fill="#64748b" class="chart-tick">10</text><line x1="48" y1="147.79310344827584" x2="544" y2="147.79310344827584" stroke="#e2e8f0" stroke-width="1" class="chart-grid"></line><text x="42" y="151.79310344827584" font-size="11" text-anchor="end" fill="#64748b" class="chart-tick">15</text><line x1="48" y1="109.86206896551725" x2="544" y2="109.86206896551725" stroke="#e2e8f0" stroke-width="1" class="chart-grid"></line><text x="42" y="113.86206896551725" font-size="11" text-anchor="end" fill="#64748b" class="chart-tick">20</text><line x1="48" y1="71.93103448275863" x2="544" y2="71.93103448275863" stroke="#e2e8f0" stroke-width="1" class="chart-grid"></line><text x="42" y="75.93103448275863" font-size="11" text-anchor="end" fill="#64748b" class="chart-tick">25</text><line x1="48" y1="34" x2="544" y2="34" stroke="#e2e8f0" stroke-width="1" class="chart-grid"></line><text x="42" y="38" font-size="11" text-anchor="end" fill="#64748b" class="chart-tick">30</text><text x="172" y="270" font-size="11" text-anchor="middle" fill="#64748b" class="chart-tick">jaren</text><text x="420" y="270" font-size="11" text-anchor="middle" fill="#64748b" class="chart-tick">rival</text><line x1="48" y1="34" x2="48" y2="254" stroke="#94a3b8" stroke-width="1" class="chart-axis"></line><line x1="48" y1="254" x2="544" y2="254" stroke="#94a3b8" stroke-width="1" class="chart-axis"></line><text x="0" y="0" font-size="12" fill="#64748b" text-anchor="middle" transform="rotate(-90) translate(-144 12)" class="chart-axis-label">ms</text><line x1="172" y1="254" x2="172" y2="242.62" stroke="#94a3b8" stroke-width="1" class="chart-box-whisker"></line><line x1="172" y1="227.45" x2="172" y2="216.07" stroke="#94a3b8" stroke-width="1" class="chart-box-whisker"></line><line x1="131.7" y1="254" x2="212.3" y2="254" stroke="#94a3b8" stroke-width="1" class="chart-box-whisker"></line><line x1="131.7" y1="216.07" x2="212.3" y2="216.07" stroke="#94a3b8" stroke-width="1" class="chart-box-whisker"></line><rect x="91.4" y="227.45" width="161.2" height="15.17" fill="#2563eb" fill-opacity="0.35" stroke="#2563eb" stroke-width="1.5" class="chart-box"><title>jaren — min 1, q1 2.5, median 3, q3 4.5, max 14</title></rect><line x1="91.4" y1="238.83" x2="252.6" y2="238.83" stroke="#2563eb" stroke-width="2" class="chart-box-median"></line><circle cx="172" cy="155.38" r="2.5" fill="#2563eb" fill-opacity="0.75" class="chart-dot"></circle><line x1="420" y1="231.24" x2="420" y2="208.48" stroke="#94a3b8" stroke-width="1" class="chart-box-whisker"></line><line x1="420" y1="170.55" x2="420" y2="147.79" stroke="#94a3b8" stroke-width="1" class="chart-box-whisker"></line><line x1="379.7" y1="231.24" x2="460.3" y2="231.24" stroke="#94a3b8" stroke-width="1" class="chart-box-whisker"></line><line x1="379.7" y1="147.79" x2="460.3" y2="147.79" stroke="#94a3b8" stroke-width="1" class="chart-box-whisker"></line><rect x="339.4" y="170.55" width="161.2" height="37.93" fill="#2563eb" fill-opacity="0.35" stroke="#2563eb" stroke-width="1.5" class="chart-box"><title>rival — min 4, q1 7, median 9, q3 12, max 15</title></rect><line x1="339.4" y1="193.31" x2="500.6" y2="193.31" stroke="#2563eb" stroke-width="2" class="chart-box-median"></line><circle cx="420" cy="34" r="2.5" fill="#2563eb" fill-opacity="0.75" class="chart-dot"></circle></svg>