<svg class="chart chart-svg chart-pie" role="img" xmlns="http://www.w3.org/2000/svg" viewBox="0 0 450 330" width="450" height="330" style="--chart-background:transparent;--chart-text:#1f2020;--chart-muted:#64748b;--chart-grid:#e2e8f0;--chart-axis:#94a3b8;--chart-win:#16a34a;--chart-loss:#dc2626;--chart-slice-stroke:#ffffff;--chart-font-family:Inter, &quot;Helvetica Neue&quot;, Arial, sans-serif;font-family:Inter, &quot;Helvetica Neue&quot;, Arial, sans-serif;max-width:100%"><text x="150" y="24" font-size="16" font-weight="bold" text-anchor="middle" fill="#1f2020">Donut fixture</text><path d="M150,98.5 L150,40 A130,130 0 0 1 150,300 L150,241.5 A71.5,71.5 0 0 0 150,98.5 Z" fill="#2563eb" stroke="#ffffff" stroke-width="1" class="chart-pie-slice"></path><path d="M150,241.5 L150,300 A130,130 0 0 1 37.41669750802295,105.00000000000004 L88.07918362941263,134.25000000000003 A71.5,71.5 0 0 0 150,241.5 Z" fill="#f59e0b" stroke="#ffffff" stroke-width="1" class="chart-pie-slice"></path><path d="M88.07918362941263,134.25000000000003 L37.41669750802295,105.00000000000004 A130,130 0 0 1 149.99999999999997,40 L150,98.5 A71.5,71.5 0 0 0 88.07918362941263,134.25000000000003 Z" fill="#0d9488" stroke="#ffffff" stroke-width="1" class="chart-pie-slice"></path><g class="chart-pie-legend"><rect x="310" y="40" width="14" height="14" fill="#2563eb"></rect><text x="330" y="52" font-size="14" fill="#1f2020">a (50.0%)</text></g><g class="chart-pie-legend"><rect x="310" y="64" width="14" height="14" fill="#f59e0b"></rect><text x="330" y="76" font-size="14" fill="#1f2020">b (33.3%)</text></g><g class="chart-pie-legend"><rect x="310" y="88" width="14" height="14" fill="#0d9488"></rect><text x="330" y="100" font-size="14" fill="#1f2020">c (16.7%)</text></g></svg>