<svg class="chart chart-svg chart-gauge-chart" role="img" xmlns="http://www.w3.org/2000/svg" viewBox="0 0 312 183" width="312" height="183" style="--chart-background:transparent;--chart-text:#1f2020;--chart-muted:#64748b;--chart-grid:#e2e8f0;--chart-axis:#94a3b8;--chart-win:#16a34a;--chart-loss:#dc2626;--chart-slice-stroke:#ffffff;--chart-font-family:Inter, &quot;Helvetica Neue&quot;, Arial, sans-serif;font-family:Inter, &quot;Helvetica Neue&quot;, Arial, sans-serif;max-width:100%" aria-label="Gauge fixture"><title>Gauge fixture</title><text x="156" y="24" font-size="15" font-weight="bold" text-anchor="middle" fill="#1f2020" class="chart-title">Gauge fixture</text><path d="M46,159 A110,110 0 0 1 266,159" fill="none" stroke="#e2e8f0" stroke-width="18" class="chart-gauge-track"></path><path d="M46,159 A110,110 0 0 1 257.49,116.59" fill="none" stroke="#16a34a" stroke-width="18" class="chart-gauge-fill"></path><line x1="35" y1="159" x2="29" y2="159" stroke="#94a3b8" stroke-width="1" class="chart-axis"></line><text x="25" y="163" font-size="11" text-anchor="end" fill="#64748b" class="chart-tick">0</text><line x1="58.11" y1="87.88" x2="53.25" y2="84.35" stroke="#94a3b8" stroke-width="1" class="chart-axis"></line><text x="50.02" y="86" font-size="11" text-anchor="end" fill="#64748b" class="chart-tick">20</text><line x1="118.61" y1="43.92" x2="116.75" y2="38.22" stroke="#94a3b8" stroke-width="1" class="chart-axis"></line><text x="115.52" y="38.41" font-size="11" text-anchor="end" fill="#64748b" class="chart-tick">40</text><line x1="193.39" y1="43.92" x2="195.25" y2="38.22" stroke="#94a3b8" stroke-width="1" class="chart-axis"></line><text x="196.48" y="38.41" font-size="11" text-anchor="start" fill="#64748b" class="chart-tick">60</text><line x1="253.89" y1="87.88" x2="258.75" y2="84.35" stroke="#94a3b8" stroke-width="1" class="chart-axis"></line><text x="261.98" y="86" font-size="11" text-anchor="start" fill="#64748b" class="chart-tick">80</text><line x1="277" y1="159" x2="283" y2="159" stroke="#94a3b8" stroke-width="1" class="chart-axis"></line><text x="287" y="163" font-size="11" text-anchor="start" fill="#64748b" class="chart-tick">100</text><text x="156" y="151" font-size="30" font-weight="bold" text-anchor="middle" fill="#1f2020" class="chart-gauge-value">87.4 %</text></svg>